<svg viewBox="-748 -361.5 1496 723" width="1496" height="723" style="background-color: rgb(255, 255, 255);" xmlns="http://www.w3.org/2000/svg"><path d="M-192.71611984863318,90.54142689259966L-236.53274865351548,90.20405591102492M-236.5327486535155,-123.87490628749745L-236.53274865351548,90.20405591102492M-236.53274865351548,90.20405591102492L-248.51449691197038,120.1402313522062M-192.71611984863318,-123.53753530592272L-192.71611984863318,90.54142689259966M-192.71611984863318,90.54142689259966L-204.69786810708806,120.47760233378094" style="fill:none;stroke:rgb(0,0,0);stroke-width:1;stroke-linecap:round"></path><path d="M-192.71611984863318,90.54142689259967L-236.53274865351548,90.20405591102491L-236.53274865351548,-123.87490628749744zM-192.71611984863318,-123.5375353059227L-192.71611984863318,90.54142689259967L-236.53274865351548,-123.87490628749744z" style="fill:rgb(238,238,238); fill-opacity: 0.4"></path><path d="M-192.71611984863318,-123.53753530592272L-236.5327486535155,-123.87490628749745M-236.5327486535155,-123.87490628749745L-248.51449691197038,-93.93873084631618M-192.71611984863318,-123.53753530592272L-204.69786810708808,-93.60135986474144M105.87055014866334,56.86100918959012L-115.29116497982243,55.15815009351708M-115.29116497982244,-75.22166104703851L-115.29116497982243,55.15815009351708M-115.29116497982243,55.15815009351708L-122.58836998786225,73.39008124737006" style="fill:none;stroke:rgb(0,0,0);stroke-width:1;stroke-linecap:round"></path><path d="M105.87055014866334,56.86100918959012L-115.29116497982243,55.15815009351708L-115.29116497982243,-75.22166104703851z" style="fill:rgb(238,238,238); fill-opacity: 0.4"></path><path d="M105.87055014866331,-73.51880195096547L105.87055014866334,56.86100918959012M105.87055014866334,56.86100918959012L98.5733451406235,75.0929403434431" style="fill:none;stroke:rgb(0,0,0);stroke-width:1;stroke-linecap:round"></path><path d="M-248.51449691197033,120.14023135220621L-236.53274865351548,90.20405591102491L-192.71611984863318,90.54142689259967z" style="fill:rgb(238,238,238); fill-opacity: 0.4"></path><path d="M105.87055014866331,-73.51880195096547L-115.29116497982244,-75.22166104703851M-115.29116497982244,-75.22166104703851L-122.58836998786227,-56.98972989318552" style="fill:none;stroke:rgb(0,0,0);stroke-width:1;stroke-linecap:round"></path><path d="M105.87055014866334,-73.51880195096547L105.87055014866334,56.86100918959012L-115.29116497982243,-75.22166104703851zM-204.69786810708806,120.47760233378096L-192.71611984863318,90.54142689259967L-192.71611984863318,-123.5375353059227z" style="fill:rgb(238,238,238); fill-opacity: 0.4"></path><path d="M105.87055014866331,-73.51880195096547L98.57334514062349,-55.28687079711248M422.1617849400163,46.867554102229434L184.8286630049046,45.04018147016322M184.8286630049046,-56.42649254023757L184.8286630049046,45.04018147016322M184.8286630049046,45.04018147016322L179.149692347863,59.22898415966671" style="fill:none;stroke:rgb(0,0,0);stroke-width:1;stroke-linecap:round"></path><path d="M-236.53274865351548,-123.87490628749744L-236.53274865351548,90.20405591102491L-248.51449691197033,-93.93873084631616zM422.1617849400163,46.867554102229434L184.82866300490457,45.04018147016322L184.82866300490457,-56.42649254023757z" style="fill:rgb(238,238,238); fill-opacity: 0.4"></path><path d="M422.1617849400163,-54.599119908171346L422.1617849400163,46.867554102229434M422.1617849400163,46.867554102229434L416.4828142829747,61.05635679173293M422.1617849400163,-54.599119908171346L184.8286630049046,-56.42649254023757M184.8286630049046,-56.42649254023757L179.149692347863,-42.23768985073408" style="fill:none;stroke:rgb(0,0,0);stroke-width:1;stroke-linecap:round"></path><path d="M-122.58836998786227,73.39008124737006L-115.29116497982243,55.15815009351708L105.87055014866334,56.86100918959012zM-204.69786810708806,-93.60135986474141L-192.71611984863318,-123.5375353059227L-236.53274865351548,-123.87490628749744zM422.1617849400163,-54.59911990817135L422.1617849400163,46.867554102229434L184.82866300490457,-56.42649254023757z" style="fill:rgb(238,238,238); fill-opacity: 0.4"></path><path d="M-198.48863663607068,78.79872052912388L-242.30526544095298,78.46134954754915M-242.30526544095298,34.94651815683367L-242.30526544095298,78.46134954754915M-242.30526544095298,78.46134954754915L-244.74073948229835,84.54633619653093M-198.48863663607068,35.283889138408405L-198.48863663607068,78.79872052912388M-198.48863663607068,78.79872052912388L-200.92411067741605,84.88370717810567M-198.48863563967384,35.28388814502635L-198.48863563967384,78.79871953574182M-198.48863563967384,78.79871953574182L-200.9241097206098,84.88370628364001M-198.48863563967384,78.79871953574182L-119.54841470427745,36.6086359258959" style="fill:none;stroke:rgb(0,0,0);stroke-width:1;stroke-linecap:round"></path><path d="M-198.48863663607065,78.7987205291239L-242.30526544095292,78.46134954754916L-242.30526544095292,34.94651815683368z" style="fill:rgb(153,221,255); fill-opacity: 0.4"></path><path d="M-115.29116497982243,-75.22166104703851L-115.29116497982243,55.15815009351708L-122.58836998786227,-56.98972989318552z" style="fill:rgb(238,238,238); fill-opacity: 0.4"></path><path d="M-198.48863663607065,35.28388913840842L-198.48863663607065,78.7987205291239L-242.30526544095292,34.94651815683368z" style="fill:rgb(153,221,255); fill-opacity: 0.4"></path><path d="M-198.48863663607068,35.283889138408405L-242.30526544095298,34.94651815683367M-242.30526544095298,34.94651815683367L-244.74073948229835,41.03150480581544M422.1617849400163,-54.599119908171346L416.4828142829747,-40.41031721866786M-198.48863663607068,35.283889138408405L-200.92411067741605,41.36887578739018M-198.48863563967384,35.28388814502635L-200.9241097206098,41.368874892924524M-198.48863563967384,35.28388814502635L-119.54841470427745,36.6086359258959" style="fill:none;stroke:rgb(0,0,0);stroke-width:1;stroke-linecap:round"></path><path d="M98.57334514062349,75.0929403434431L105.87055014866334,56.86100918959012L105.87055014866334,-73.51880195096547z" style="fill:rgb(238,238,238); fill-opacity: 0.4"></path><path d="M-198.4886370315982,78.7987205260785L-198.4886370315982,35.28388913536301L-119.54841607483738,36.608637055461905z" style="fill:rgb(255,187,187); fill-opacity: 0.4"></path><path d="M-244.74073948229835,84.54633619653093L-242.30526544095292,78.46134954754916L-198.48863663607065,78.7987205291239z" style="fill:rgb(153,221,255); fill-opacity: 0.4"></path><path d="M98.57334514062349,-55.28687079711248L105.87055014866334,-73.51880195096547L-115.29116497982243,-75.22166104703851z" style="fill:rgb(238,238,238); fill-opacity: 0.4"></path><path d="M-242.30526544095292,34.94651815683368L-242.30526544095292,78.46134954754916L-244.74073948229835,41.03150480581545z" style="fill:rgb(153,221,255); fill-opacity: 0.4"></path><path d="M179.14969234786298,59.22898415966671L184.82866300490457,45.04018147016322L422.1617849400163,46.867554102229434z" style="fill:rgb(238,238,238); fill-opacity: 0.4"></path><path d="M-198.4886370315982,35.28388913536301L-198.4886370315982,78.7987205260785L-200.9241110729436,84.88370717506027z" style="fill:rgb(255,187,187); fill-opacity: 0.4"></path><path d="M-200.92411067741605,84.88370717810567L-198.48863663607065,78.7987205291239L-198.48863663607065,35.28388913840842z" style="fill:rgb(153,221,255); fill-opacity: 0.4"></path><path d="M541.3246887166861,153.05582277910617L513.6794743256253,152.84296539209703M513.6794743256253,-148.77887366477128L513.6794743256253,152.84296539209703M513.6794743256253,152.84296539209703L512.1447998076942,156.67732116580285" style="fill:none;stroke:rgb(0,0,0);stroke-width:1;stroke-linecap:round"></path><path d="M-200.92411067741605,41.36887578739019L-198.48863663607065,35.28388913840842L-242.30526544095292,34.94651815683368z" style="fill:rgb(153,221,255); fill-opacity: 0.4"></path><path d="M541.3246887166861,-148.56601627776215L541.3246887166861,153.05582277910617M541.3246887166861,153.05582277910617L539.7900141987549,156.890178552812" style="fill:none;stroke:rgb(0,0,0);stroke-width:1;stroke-linecap:round"></path><path d="M184.82866300490457,-56.42649254023757L184.82866300490457,45.04018147016322L179.14969234786298,-42.23768985073408z" style="fill:rgb(238,238,238); fill-opacity: 0.4"></path><path d="M-200.9241110729436,84.88370717506027L-198.4886370315982,78.7987205260785L-119.54841607483738,36.608637055461905z" style="fill:rgb(255,187,187); fill-opacity: 0.4"></path><path d="M-200.9241097206098,84.88370628364001L-119.54841470427745,36.6086359258959M-200.9241097206098,41.368874892924524L-119.54841470427745,36.6086359258959" style="fill:none;stroke:rgb(0,0,0);stroke-width:1;stroke-linecap:round"></path><path d="M-198.4886370315982,35.28388913536301L-200.9241110729436,41.36887578434478L-119.54841607483738,36.608637055461905z" style="fill:rgb(255,187,187); fill-opacity: 0.4"></path><path d="M-200.92411067741605,84.88370717810567L-244.74073948229835,84.54633619653093L-198.48863663607065,78.7987205291239zM-242.30526544095292,78.46134954754916L-244.74073948229835,84.54633619653093L-244.74073948229835,41.03150480581545z" style="fill:rgb(153,221,255); fill-opacity: 0.4"></path><path d="M512.1447998076941,156.67732116580288L513.6794743256253,152.84296539209706L541.3246887166861,153.05582277910617zM416.4828142829747,61.056356791732924L422.1617849400163,46.867554102229434L422.1617849400163,-54.59911990817135z" style="fill:rgb(238,238,238); fill-opacity: 0.4"></path><path d="M648.737130225186,99.80044666782987L621.0919158341253,99.58758928082074M621.0919158341253,-93.86942959740321L621.0919158341253,99.58758928082074M621.0919158341253,99.58758928082074L619.5572413161941,103.42194505452656" style="fill:none;stroke:rgb(0,0,0);stroke-width:1;stroke-linecap:round"></path><path d="M-198.4886370315982,35.28388913536301L-200.9241110729436,84.88370717506027L-200.9241110729436,41.36887578434478z" style="fill:rgb(255,187,187); fill-opacity: 0.4"></path><path d="M-200.92411067741605,41.36887578739019L-200.92411067741605,84.88370717810567L-198.48863663607065,35.28388913840842zM-244.74073948229835,41.03150480581545L-200.92411067741605,41.36887578739019L-242.30526544095292,34.94651815683368z" style="fill:rgb(153,221,255); fill-opacity: 0.4"></path><path d="M541.3246887166861,153.05582277910617L513.6794743256253,152.84296539209706L513.6794743256253,-148.77887366477128z" style="fill:rgb(238,238,238); fill-opacity: 0.4"></path><path d="M648.737130225186,-93.65657221039407L648.737130225186,99.80044666782987M648.737130225186,99.80044666782987L647.2024557072549,103.6348024415357" style="fill:none;stroke:rgb(0,0,0);stroke-width:1;stroke-linecap:round"></path><path d="M-204.69786810708806,120.47760233378096L-248.51449691197033,120.14023135220621L-192.71611984863318,90.54142689259967zM416.4828142829747,-40.41031721866786L422.1617849400163,-54.59911990817135L184.82866300490457,-56.42649254023757zM-115.29116497982243,55.15815009351708L-122.58836998786227,73.39008124737006L-122.58836998786227,-56.98972989318552zM539.7900141987549,156.890178552812L512.1447998076941,156.67732116580288L541.3246887166861,153.05582277910617z" style="fill:rgb(238,238,238); fill-opacity: 0.4"></path><path d="M-200.9241110729436,41.36887578434478L-200.9241110729436,84.88370717506027L-119.54841607483738,36.608637055461905z" style="fill:rgb(255,187,187); fill-opacity: 0.4"></path><path d="M98.57334514062349,75.0929403434431L-122.58836998786227,73.39008124737006L105.87055014866334,56.86100918959012z" style="fill:rgb(238,238,238); fill-opacity: 0.4"></path><path d="M-244.74073948229835,41.03150480581544L-244.74073948229835,84.54633619653093M-244.74073948229835,84.54633619653093L-200.92411067741605,84.88370717810567" style="fill:none;stroke:rgb(0,0,0);stroke-width:1;stroke-linecap:round"></path><path d="M648.737130225186,99.80044666782987L621.0919158341253,99.58758928082077L621.0919158341253,-93.86942959740318zM619.5572413161941,103.42194505452657L621.0919158341253,99.58758928082077L648.737130225186,99.80044666782987zM-236.53274865351548,90.20405591102491L-248.51449691197033,120.14023135220621L-248.51449691197033,-93.93873084631616z" style="fill:rgb(238,238,238); fill-opacity: 0.4"></path><path d="M-200.92411067741605,41.36887578739018L-200.92411067741605,84.88370717810567M-200.9241097206098,84.88370628364001L-200.9241097206098,41.368874892924524" style="fill:none;stroke:rgb(0,0,0);stroke-width:1;stroke-linecap:round"></path><path d="M539.7900141987549,156.890178552812L541.3246887166861,153.05582277910617L541.3246887166861,-148.56601627776215z" style="fill:rgb(238,238,238); fill-opacity: 0.4"></path><path d="M-244.74073948229835,84.54633619653093L-200.92411067741605,84.88370717810567L-200.92411067741605,41.36887578739019zM-244.74073948229835,41.03150480581545L-244.74073948229835,84.54633619653093L-200.92411067741605,41.36887578739019z" style="fill:rgb(153,221,255); fill-opacity: 0.4"></path><path d="M512.1447998076942,-144.9445178910655L512.1447998076942,156.67732116580285M512.1447998076942,156.67732116580285L539.7900141987549,156.890178552812M-244.74073948229835,41.03150480581544L-200.92411067741605,41.36887578739018M539.7900141987549,-144.73166050405635L539.7900141987549,156.890178552812" style="fill:none;stroke:rgb(0,0,0);stroke-width:1;stroke-linecap:round"></path><path d="M541.3246887166861,-148.56601627776215L541.3246887166861,153.05582277910617L513.6794743256253,-148.77887366477128z" style="fill:rgb(238,238,238); fill-opacity: 0.4"></path><path d="M437.1332712709083,3.3657559887676607L482.3347000138371,3.71378939068659" style="fill:none;stroke:rgb(0,0,0);stroke-width:1;stroke-linecap:round"></path><path d="M184.82866300490457,45.04018147016322L179.14969234786298,59.22898415966671L179.14969234786298,-42.23768985073408zM513.6794743256253,152.84296539209706L512.1447998076941,156.67732116580288L512.1447998076941,-144.94451789106546zM648.737130225186,-93.65657221039407L648.737130225186,99.80044666782987L621.0919158341253,-93.86942959740318zM647.2024557072548,103.6348024415357L619.5572413161941,103.42194505452657L648.737130225186,99.80044666782987zM647.2024557072548,103.6348024415357L648.737130225186,99.80044666782987L648.737130225186,-93.65657221039407z" style="fill:rgb(238,238,238); fill-opacity: 0.4"></path><path d="M482.6600490373869,-5.100052386981L482.0093509902875,-3.4742954041920475L508.9237757449718,3.9185149212271364z" style="fill:rgb(0,0,0)"></path><path d="M-122.58836998786227,-56.98972989318552L98.57334514062349,-55.28687079711248L-115.29116497982243,-75.22166104703851zM416.4828142829747,61.056356791732924L179.14969234786298,59.22898415966671L422.1617849400163,46.867554102229434z" style="fill:rgb(238,238,238); fill-opacity: 0.4"></path><path d="M481.8082742149618,8.08515055265158L482.3347000138372,13.603523797667382L508.9237757449718,3.9185149212271364z" style="fill:rgb(0,0,0)"></path><path d="M-204.69786810708806,-93.60135986474141L-204.69786810708806,120.47760233378096L-192.71611984863318,-123.5375353059227z" style="fill:rgb(238,238,238); fill-opacity: 0.4"></path><path d="M544.5457127794083,4.192789966813551L589.7471415223371,4.540823368732481" style="fill:none;stroke:rgb(0,0,0);stroke-width:1;stroke-linecap:round"></path><path d="M98.57334514062349,-55.28687079711248L98.57334514062349,75.0929403434431L105.87055014866334,-73.51880195096547zM513.6794743256253,-148.77887366477128L513.6794743256253,152.84296539209706L512.1447998076941,-144.94451789106546z" style="fill:rgb(238,238,238); fill-opacity: 0.4"></path><path d="M482.0093509902875,-3.4742954041920475L481.8082742149618,8.08515055265158L508.9237757449718,3.9185149212271364zM590.0724905458869,-4.273018408935109L589.4217924987875,-2.647261426146157L616.3362172534717,4.745548899273027z" style="fill:rgb(0,0,0)"></path><path d="M648.737130225186,-93.65657221039407L621.0919158341253,-93.86942959740321M621.0919158341253,-93.86942959740321L619.5572413161941,-90.03507382369739" style="fill:none;stroke:rgb(0,0,0);stroke-width:1;stroke-linecap:round"></path><path d="M621.0919158341253,-93.86942959740318L621.0919158341253,99.58758928082077L619.5572413161941,-90.03507382369739zM621.0919158341253,99.58758928082077L619.5572413161941,103.42194505452657L619.5572413161941,-90.03507382369739z" style="fill:rgb(238,238,238); fill-opacity: 0.4"></path><path d="M619.5572413161941,-90.03507382369739L619.5572413161941,103.42194505452656M619.5572413161941,103.42194505452656L647.2024557072549,103.6348024415357M100.20620902966765,-32.651943896893165L-120.95550609881812,-34.35480299296621M-120.95550609881812,-46.22248428134317L-120.95550609881812,-34.35480299296621M-120.95550609881812,-34.35480299296621L-121.61972629191231,-32.69526117960755" style="fill:none;stroke:rgb(0,0,0);stroke-width:1;stroke-linecap:round"></path><path d="M589.2207157234618,8.912184530697472L589.7471415223372,14.43055777571327L616.3362172534717,4.745548899273027z" style="fill:rgb(0,0,0)"></path><path d="M648.737130225186,-93.65657221039407L647.2024557072549,-89.82221643668825M541.3246887166861,-148.56601627776215L513.6794743256253,-148.77887366477128M513.6794743256253,-148.77887366477128L512.1447998076942,-144.9445178910655M647.2024557072549,-89.82221643668825L647.2024557072549,103.6348024415357" style="fill:none;stroke:rgb(0,0,0);stroke-width:1;stroke-linecap:round"></path><path d="M512.1447998076941,156.67732116580288L539.7900141987549,156.890178552812L539.7900141987549,-144.73166050405635z" style="fill:rgb(238,238,238); fill-opacity: 0.4"></path><path d="M100.20620902966765,-44.519625185270115L-120.95550609881812,-46.22248428134317M-120.95550609881812,-46.22248428134317L-121.61972629191231,-44.5629424679845M541.3246887166861,-148.56601627776215L539.7900141987549,-144.73166050405635" style="fill:none;stroke:rgb(0,0,0);stroke-width:1;stroke-linecap:round"></path><path d="M-248.51449691197033,-93.93873084631616L-204.69786810708806,-93.60135986474141L-236.53274865351548,-123.87490628749744z" style="fill:rgb(238,238,238); fill-opacity: 0.4"></path><path d="M589.4217924987875,-2.647261426146157L589.2207157234618,8.912184530697472L616.3362172534717,4.745548899273027z" style="fill:rgb(0,0,0)"></path><path d="M179.14969234786298,-42.23768985073408L416.4828142829747,-40.41031721866786L184.82866300490457,-56.42649254023757z" style="fill:rgb(238,238,238); fill-opacity: 0.4"></path><path d="M100.20620902966762,-32.651943896893165L-120.95550609881813,-34.35480299296622L-120.95550609881813,-46.22248428134317zM-120.95550609881813,-46.22248428134317L-120.95550609881813,-34.35480299296622L-121.61972629191231,-44.562942467984506z" style="fill:rgb(153,221,255); fill-opacity: 0.4"></path><path d="M539.7900141987549,-144.73166050405635L539.7900141987549,156.890178552812L541.3246887166861,-148.56601627776215zM416.4828142829747,-40.41031721866786L416.4828142829747,61.056356791732924L422.1617849400163,-54.59911990817135z" style="fill:rgb(238,238,238); fill-opacity: 0.4"></path><path d="M-121.61972629191231,-32.695261179607556L-120.95550609881813,-34.35480299296622L100.20620902966762,-32.651943896893165zM-120.95550609881813,-34.35480299296622L-121.61972629191231,-32.695261179607556L-121.61972629191231,-44.562942467984506zM100.20620902966762,-44.51962518527012L100.20620902966762,-32.651943896893165L-120.95550609881813,-46.22248428134317z" style="fill:rgb(153,221,255); fill-opacity: 0.4"></path><path d="M647.2024557072548,-89.82221643668827L648.737130225186,-93.65657221039407L621.0919158341253,-93.86942959740318zM619.5572413161941,103.42194505452657L647.2024557072548,103.6348024415357L647.2024557072548,-89.82221643668827zM647.2024557072548,-89.82221643668827L647.2024557072548,103.6348024415357L648.737130225186,-93.65657221039407zM539.7900141987549,-144.73166050405635L541.3246887166861,-148.56601627776215L513.6794743256253,-148.77887366477128z" style="fill:rgb(238,238,238); fill-opacity: 0.4"></path><path d="M-121.61972629191231,-44.5629424679845L-121.61972629191231,-32.69526117960755M-121.61972629191231,-32.69526117960755L99.54198883657344,-30.992402083534497M100.20620902966765,-44.519625185270115L100.20620902966765,-32.651943896893165M100.20620902966765,-32.651943896893165L99.54198883657344,-30.992402083534497M100.2062107073264,-44.5196240299846L100.2062107073264,-32.651942741607655M100.2062107073264,-32.651942741607655L99.54199051423221,-30.99240092824899M100.2062107073264,-32.651942741607655L180.1619886495704,-28.594492088655198M100.2062107073264,-44.5196240299846L180.1619886495704,-28.594492088655198M99.54199051423221,-30.99240092824899L180.1619886495704,-28.594492088655198M99.54199051423221,-42.86008221662593L180.1619886495704,-28.594492088655198" style="fill:none;stroke:rgb(0,0,0);stroke-width:1;stroke-linecap:round"></path><path d="M100.20620872580965,-32.651943899232755L100.20620872580965,-44.51962518760971L180.16198669423454,-28.594491127542057z" style="fill:rgb(255,187,187); fill-opacity: 0.4"></path><path d="M-121.61972629191231,-44.5629424679845L99.54198883657344,-42.86008337191145" style="fill:none;stroke:rgb(0,0,0);stroke-width:1;stroke-linecap:round"></path><path d="M-121.61972629191231,-44.562942467984506L99.54198883657344,-42.86008337191145L-120.95550609881813,-46.22248428134317zM99.54198883657344,-42.86008337191145L100.20620902966762,-44.51962518527012L-120.95550609881813,-46.22248428134317z" style="fill:rgb(153,221,255); fill-opacity: 0.4"></path><path d="M100.20620902966765,-44.519625185270115L99.54198883657344,-42.86008337191145M100.2062107073264,-44.5196240299846L99.54199051423221,-42.86008221662593M-122.58836998786227,-56.98972989318552L-122.58836998786225,73.39008124737006M-122.58836998786225,73.39008124737006L98.5733451406235,75.0929403434431" style="fill:none;stroke:rgb(0,0,0);stroke-width:1;stroke-linecap:round"></path><path d="M512.1447998076941,-144.94451789106546L512.1447998076941,156.67732116580288L539.7900141987549,-144.73166050405635z" style="fill:rgb(238,238,238); fill-opacity: 0.4"></path><path d="M99.54198883657344,-30.992402083534504L-121.61972629191231,-32.695261179607556L100.20620902966762,-32.651943896893165z" style="fill:rgb(153,221,255); fill-opacity: 0.4"></path><path d="M99.54198853271546,-30.992402085874094L100.20620872580965,-32.651943899232755L180.16198669423454,-28.594491127542057zM100.20620872580965,-44.51962518760971L100.20620872580965,-32.651943899232755L99.54198853271546,-30.992402085874094z" style="fill:rgb(255,187,187); fill-opacity: 0.4"></path><path d="M99.54198883657344,-30.992402083534504L100.20620902966762,-32.651943896893165L100.20620902966762,-44.51962518527012zM-121.61972629191231,-44.562942467984506L-121.61972629191231,-32.695261179607556L99.54198883657344,-42.86008337191145z" style="fill:rgb(153,221,255); fill-opacity: 0.4"></path><path d="M100.20620872580965,-44.51962518760971L99.54198853271546,-42.86008337425104L180.16198669423454,-28.594491127542057z" style="fill:rgb(255,187,187); fill-opacity: 0.4"></path><path d="M619.5572413161941,-90.03507382369739L647.2024557072548,-89.82221643668827L621.0919158341253,-93.86942959740318zM619.5572413161941,-90.03507382369739L619.5572413161941,103.42194505452657L647.2024557072548,-89.82221643668827z" style="fill:rgb(238,238,238); fill-opacity: 0.4"></path><path d="M179.149692347863,-42.23768985073408L179.149692347863,59.22898415966671M179.149692347863,59.22898415966671L416.4828142829747,61.05635679173293" style="fill:none;stroke:rgb(0,0,0);stroke-width:1;stroke-linecap:round"></path><path d="M512.1447998076941,-144.94451789106546L539.7900141987549,-144.73166050405635L513.6794743256253,-148.77887366477128z" style="fill:rgb(238,238,238); fill-opacity: 0.4"></path><path d="M-121.61972629191231,-32.695261179607556L99.54198883657344,-30.992402083534504L99.54198883657344,-42.86008337191145z" style="fill:rgb(153,221,255); fill-opacity: 0.4"></path><path d="M99.54198853271546,-42.86008337425104L99.54198853271546,-30.992402085874094L180.16198669423454,-28.594491127542057zM100.20620872580965,-44.51962518760971L99.54198853271546,-30.992402085874094L99.54198853271546,-42.86008337425104z" style="fill:rgb(255,187,187); fill-opacity: 0.4"></path><path d="M99.54198883657344,-42.86008337191145L99.54198883657344,-30.992402083534504L100.20620902966762,-44.51962518527012z" style="fill:rgb(153,221,255); fill-opacity: 0.4"></path><path d="M99.54198883657344,-42.86008337191145L99.54198883657344,-30.992402083534497M99.54199051423221,-30.99240092824899L99.54199051423221,-42.86008221662593M619.5572413161941,-90.03507382369739L647.2024557072549,-89.82221643668825M98.57334514062349,-55.28687079711248L98.5733451406235,75.0929403434431M512.1447998076942,-144.9445178910655L539.7900141987549,-144.73166050405635" style="fill:none;stroke:rgb(0,0,0);stroke-width:1;stroke-linecap:round"></path><path d="M-122.58836998786227,73.39008124737006L98.57334514062349,75.0929403434431L98.57334514062349,-55.28687079711248zM-122.58836998786227,-56.98972989318552L-122.58836998786227,73.39008124737006L98.57334514062349,-55.28687079711248z" style="fill:rgb(238,238,238); fill-opacity: 0.4"></path><path d="M416.4828142829747,-40.41031721866786L416.4828142829747,61.05635679173293" style="fill:none;stroke:rgb(0,0,0);stroke-width:1;stroke-linecap:round"></path><path d="M179.14969234786298,59.22898415966671L416.4828142829747,61.056356791732924L416.4828142829747,-40.41031721866786zM179.14969234786298,-42.23768985073408L179.14969234786298,59.22898415966671L416.4828142829747,-40.41031721866786z" style="fill:rgb(238,238,238); fill-opacity: 0.4"></path><path d="M-122.58836998786227,-56.98972989318552L98.57334514062349,-55.28687079711248M179.149692347863,-42.23768985073408L416.4828142829747,-40.41031721866786M-248.51449691197038,-93.93873084631618L-248.51449691197038,120.1402313522062M-248.51449691197038,120.1402313522062L-204.69786810708806,120.47760233378094M-204.69786810708808,-93.60135986474144L-204.69786810708806,120.47760233378094" style="fill:none;stroke:rgb(0,0,0);stroke-width:1;stroke-linecap:round"></path><path d="M-248.51449691197033,120.14023135220621L-204.69786810708806,120.47760233378096L-204.69786810708806,-93.60135986474141zM-248.51449691197033,-93.93873084631616L-248.51449691197033,120.14023135220621L-204.69786810708806,-93.60135986474141z" style="fill:rgb(238,238,238); fill-opacity: 0.4"></path><path d="M-248.51449691197038,-93.93873084631618L-204.69786810708808,-93.60135986474144" style="fill:none;stroke:rgb(0,0,0);stroke-width:1;stroke-linecap:round"></path></svg>